HIERARCHY
ROOT joint_Root
{
	OFFSET 0.0 0.0 0.0
	CHANNELS 6 Xposition Yposition Zposition Zrotation Xrotation Yrotation 
	JOINT Hips
	{
		OFFSET 4.5925 91.4895 -427.239
		CHANNELS 6 Xposition Yposition Zposition Zrotation Xrotation Yrotation 
		JOINT Spine
		{
			OFFSET 15.7357 0.0 0.0
			CHANNELS 6 Xposition Yposition Zposition Zrotation Xrotation Yrotation 
			JOINT Chest
			{
				OFFSET 8.98455 -0.406207 0.0
				CHANNELS 6 Xposition Yposition Zposition Zrotation Xrotation Yrotation 
				JOINT Neck
				{
					OFFSET 16.3773 0.0 0.0
					CHANNELS 6 Xposition Yposition Zposition Zrotation Xrotation Yrotation 
					JOINT Head
					{
						OFFSET 6.45672 0.0 0.0
						CHANNELS 6 Xposition Yposition Zposition Zrotation Xrotation Yrotation 
						End Site
						{
							OFFSET 0.0 0.0 0.0
						}
					}
				}
				JOINT Shoulder_L
				{
					OFFSET 12.9942 -0.242716 4.98039
					CHANNELS 6 Xposition Yposition Zposition Zrotation Xrotation Yrotation 
					JOINT UpperArm_L
					{
						OFFSET 5.34809 0.0 0.0
						CHANNELS 6 Xposition Yposition Zposition Zrotation Xrotation Yrotation 
						JOINT LowerArm_L
						{
							OFFSET 24.3286 1.87007e-05 0.0
							CHANNELS 6 Xposition Yposition Zposition Zrotation Xrotation Yrotation 
							JOINT Hand_L
							{
								OFFSET 22.2916 0.0 0.0
								CHANNELS 6 Xposition Yposition Zposition Zrotation Xrotation Yrotation 
								End Site
								{
									OFFSET 0.0 0.0 0.0
								}
							}
						}
					}
				}
				JOINT Shoulder_R
				{
					OFFSET 12.9945 -0.242716 -4.98039
					CHANNELS 6 Xposition Yposition Zposition Zrotation Xrotation Yrotation 
					JOINT UpperArm_R
					{
						OFFSET -5.34813 0.0 0.0
						CHANNELS 6 Xposition Yposition Zposition Zrotation Xrotation Yrotation 
						JOINT LowerArm_R
						{
							OFFSET -24.3289 0.000322201 0.0
							CHANNELS 6 Xposition Yposition Zposition Zrotation Xrotation Yrotation 
							JOINT Hand_R
							{
								OFFSET -22.2915 -0.000108084 0.0
								CHANNELS 6 Xposition Yposition Zposition Zrotation Xrotation Yrotation 
								End Site
								{
									OFFSET 0.0 0.0 0.0
								}
							}
						}
					}
				}
			}
		}
		JOINT UpperLeg_L
		{
			OFFSET -2.19248 -6.46944 0.0
			CHANNELS 6 Xposition Yposition Zposition Zrotation Xrotation Yrotation 
			JOINT LowerLeg_L
			{
				OFFSET 39.0811 0.0 -1.23785e-05
				CHANNELS 6 Xposition Yposition Zposition Zrotation Xrotation Yrotation 
				JOINT Foot_L
				{
					OFFSET 40.9854 0.0 -1.26872e-05
					CHANNELS 6 Xposition Yposition Zposition Zrotation Xrotation Yrotation 
					JOINT Toes_L
					{
						OFFSET 11.7543 0.0 0.0
						CHANNELS 6 Xposition Yposition Zposition Zrotation Xrotation Yrotation 
						End Site
						{
							OFFSET 0.0 0.0 0.0
						}
					}
				}
			}
		}
		JOINT UpperLeg_R
		{
			OFFSET -2.19251 6.46944 0.0
			CHANNELS 6 Xposition Yposition Zposition Zrotation Xrotation Yrotation 
			JOINT LowerLeg_R
			{
				OFFSET -39.0811 -0.00228153 -0.0401928
				CHANNELS 6 Xposition Yposition Zposition Zrotation Xrotation Yrotation 
				JOINT Foot_R
				{
					OFFSET -40.9854 0.0 0.0
					CHANNELS 6 Xposition Yposition Zposition Zrotation Xrotation Yrotation 
					JOINT Toes_R
					{
						OFFSET -11.7543 0.0 0.0
						CHANNELS 6 Xposition Yposition Zposition Zrotation Xrotation Yrotation 
						End Site
						{
							OFFSET 0.0 0.0 0.0
						}
					}
				}
			}
		}
	}
}
MOTION
Frames:	5
Frame Time:	0.0333333
0.000000 0.000000 0.000000 0.000000 0.000000 -0.000000 1.038300 89.763300 522.992000 -88.869900 6.328180 -179.020000 15.735700 0.000005 -0.000001 95.416500 83.139200 -93.659900 8.984550 -0.406207 -0.000000 5.878540 1.263020 3.444460 16.377300 -0.000001 -0.000001 -0.943075 -5.021980 3.498400 6.456720 -0.000001 -0.000000 -11.899500 -8.267620 6.083080 12.994200 -0.242716 4.980390 -91.226100 3.582050 -71.091000 5.348090 -0.000007 -0.000001 -77.935600 29.128700 4.336280 24.328600 0.000019 0.000005 8.407640 25.988300 -18.643700 22.291600 -0.000001 0.000005 1.648950 5.343860 -1.179420 12.994500 -0.242716 -4.980390 87.941800 11.664800 -79.921000 -5.348130 -0.000001 -0.000004 -62.425300 28.350500 -10.075000 -24.328900 0.000322 -0.000009 -0.015449 -0.054974 -14.281600 -22.291500 -0.000108 -0.000004 14.594400 5.292700 0.274795 -2.192480 -6.469440 -0.000000 -171.801000 -2.701380 -19.596200 39.081100 -0.000007 -0.000012 0.092225 -0.056351 58.572500 40.985400 -0.000006 -0.000013 -3.698820 -2.457670 -71.000400 11.754300 -0.000000 0.000003 -0.000848 -0.013226 -17.114700 -2.192510 6.469440 -0.000001 175.629000 17.941500 179.746000 -39.081100 -0.002282 -0.040193 -0.182513 0.352633 27.787200 -40.985400 0.000008 0.000006 2.480540 14.265100 -76.208300 -11.754300 -0.000006 -0.000006 -0.011312 -0.113191 -21.186600
0.000000 0.000000 0.000000 0.000000 0.000000 -0.000000 1.067460 89.707300 521.735000 -89.018600 7.955370 -178.959000 15.735700 0.000005 -0.000001 98.133400 83.088500 -96.657900 8.984550 -0.406207 -0.000000 5.897480 1.926540 2.848600 16.377300 -0.000001 -0.000001 -0.485797 -5.423310 3.783600 6.456720 -0.000001 -0.000000 -11.539800 -9.402560 5.950120 12.994200 -0.242716 4.980390 -91.109200 3.252360 -71.156800 5.348090 -0.000007 -0.000001 -79.119300 28.074800 6.259130 24.328600 0.000019 0.000005 6.207290 30.953500 -11.943000 22.291600 -0.000001 0.000005 -2.187130 5.314630 -0.320291 12.994500 -0.242716 -4.980390 88.051400 11.493800 -80.310600 -5.348130 -0.000001 -0.000004 -62.756100 34.762800 -14.283100 -24.328900 0.000322 -0.000009 -0.371698 -1.049780 -19.452400 -22.291500 -0.000108 -0.000004 15.288600 5.329300 -0.762067 -2.192480 -6.469440 -0.000000 -171.583000 -2.358920 -22.264400 39.081100 -0.000007 -0.000012 0.095726 -0.060379 57.756200 40.985400 -0.000006 -0.000013 -3.164210 -4.133540 -71.228900 11.754300 -0.000000 0.000003 -0.000696 -0.010991 -17.023900 -2.192510 6.469440 -0.000001 174.566000 18.503600 -178.800000 -39.081100 -0.002282 -0.040193 -0.193630 0.390554 26.760000 -40.985400 0.000008 0.000006 2.710530 16.464600 -76.529200 -11.754300 -0.000006 -0.000006 -0.010319 -0.106006 -20.892500
0.000000 0.000000 0.000000 0.000000 0.000000 -0.000000 1.101170 89.472700 520.317000 -88.966500 9.159290 -178.731000 15.735700 0.000005 -0.000001 99.755000 82.957500 -98.533200 8.984550 -0.406207 -0.000000 6.095290 2.362160 2.315490 16.377300 -0.000001 -0.000001 -0.307648 -6.302290 3.617610 6.456720 -0.000001 -0.000000 -11.497000 -10.066000 5.980910 12.994200 -0.242716 4.980390 -90.979300 2.849690 -71.026700 5.348090 -0.000007 -0.000001 -78.997600 24.981100 7.454300 24.328600 0.000019 0.000005 3.330400 33.695500 -5.989070 22.291600 -0.000001 0.000005 -3.369770 5.243220 1.605220 12.994500 -0.242716 -4.980390 88.234900 11.082100 -80.891800 -5.348130 -0.000001 -0.000004 -61.779600 40.365600 -18.821700 -24.328900 0.000322 -0.000009 -0.120635 -0.251046 -25.552200 -22.291500 -0.000108 -0.000004 16.485000 5.367060 -1.893450 -2.192480 -6.469440 -0.000000 -171.023000 -2.679730 -24.143700 39.081100 -0.000007 -0.000012 0.092460 -0.064443 55.122300 40.985400 -0.000006 -0.000013 -3.065270 -5.686840 -71.356200 11.754300 -0.000000 0.000003 -0.000714 -0.011253 -17.034600 -2.192510 6.469440 -0.000001 173.425000 19.652800 -177.163000 -39.081100 -0.002282 -0.040193 -0.199330 0.411052 26.242500 -40.985400 0.000008 0.000006 3.078270 18.968400 -77.305300 -11.754300 -0.000006 -0.000006 -0.011333 -0.113341 -21.192700
0.000000 0.000000 0.000000 0.000000 0.000000 -0.000000 1.039100 89.095200 518.775000 -88.983100 10.009100 -178.562000 15.735700 0.000005 -0.000001 100.842000 82.776900 -99.905500 8.984550 -0.406207 -0.000000 6.406260 2.698220 1.720840 16.377300 -0.000001 -0.000001 -0.507639 -6.714160 3.480410 6.456720 -0.000001 -0.000000 -11.944900 -10.922600 5.530930 12.994200 -0.242716 4.980390 -90.862100 2.495640 -70.936500 5.348090 -0.000007 -0.000001 -78.036600 21.265000 7.731710 24.328600 0.000019 0.000005 0.498152 34.317900 -0.883537 22.291600 -0.000001 0.000005 -0.599272 5.139930 4.161810 12.994500 -0.242716 -4.980390 88.423500 10.503600 -81.414800 -5.348130 -0.000001 -0.000004 -58.903700 44.749400 -24.185100 -24.328900 0.000322 -0.000009 0.208644 0.331803 -32.354800 -22.291500 -0.000108 -0.000004 17.482500 5.395210 -2.785230 -2.192480 -6.469440 -0.000000 -170.635000 -3.712080 -25.446500 39.081100 -0.000007 -0.000012 0.080144 -0.065155 50.888100 40.985400 -0.000006 -0.000013 -3.421730 -5.089590 -70.988100 11.754300 -0.000000 0.000003 -0.000623 -0.009905 -16.979800 -2.192510 6.469440 -0.000001 172.385000 19.880200 -175.806000 -39.081100 -0.002282 -0.040193 -0.211739 0.436452 26.230700 -40.985400 0.000008 0.000006 3.143540 20.293400 -78.376300 -11.754300 -0.000006 -0.000006 -0.011524 -0.114691 -21.248000
0.000000 0.000000 0.000000 0.000000 0.000000 -0.000000 0.883426 88.602900 517.051000 -89.009400 10.352200 -178.647000 15.735700 0.000005 -0.000001 101.384000 82.718300 -100.733000 8.984550 -0.406207 -0.000000 6.501160 2.858630 1.138350 16.377300 -0.000001 -0.000001 -0.876356 -7.015770 3.157690 6.456720 -0.000001 -0.000000 -12.493900 -11.402900 4.799820 12.994200 -0.242716 4.980390 -90.750700 2.189050 -71.067200 5.348090 -0.000007 -0.000001 -76.742600 18.336700 7.944620 24.328600 0.000019 0.000005 0.000181 33.714700 -0.000004 22.291600 -0.000001 0.000005 2.573100 5.035000 6.556880 12.994500 -0.242716 -4.980390 88.591400 9.868580 -81.835100 -5.348130 -0.000001 -0.000004 -55.102900 47.506400 -29.446500 -24.328900 0.000322 -0.000009 0.289712 0.355935 -39.249800 -22.291500 -0.000108 -0.000004 18.086600 5.429060 -3.903680 -2.192480 -6.469440 -0.000000 -170.490000 -5.086380 -26.439500 39.081100 -0.000007 -0.000012 0.054384 -0.053317 45.566000 40.985400 -0.000006 -0.000013 -4.647080 -1.425480 -69.846300 11.754300 -0.000000 0.000003 -0.000287 -0.004699 -16.768300 -2.192510 6.469440 -0.000001 171.733000 19.059500 -174.749000 -39.081100 -0.002282 -0.040193 -0.232255 0.475290 26.364400 -40.985400 0.000008 0.000006 2.729980 20.059900 -79.546000 -11.754300 -0.000006 -0.000006 -0.010654 -0.108460 -20.992900
